P2
# image d epaisseurs optiques interpolee par interp.f, (100=aod 1)
# wavelength= 500.000
# pixsiz    4
# lat0     33.000
# lon0    267.000
 11 6
 255
  8
  8
 10
 11
  9
  7
  7
  8
  7
  3
  6
 13
 13
 10
  9
  7
  7
  7
 11
  7
  7
  7
 16
 15
 11
  8
 11
 10
 10
 22
 15
 13
 13
 17
 17
 10
  8
  7
  7
 13
 14
 17
 20
 15
 16
 13
 10
  7
  6
  7
  8
 11
 15
 13
 11
 14
 11
 10
 12
 10
  4
  4
  4
  6
  6
  8
