P2
# image d epaisseurs optiques interpolee par interp.f, (100=aod 1)
# wavelength= 500.000
# pixsiz    4.000
# lat0   33.000
# lon0  267.000
 11 6
 255
  6
  6
  7
  8
  7
  5
  5
  6
  5
  2
  5
  9
  9
  7
  7
  5
  5
  5
  8
  5
  5
  5
 12
 11
  8
  6
  8
  7
  7
 15
 11
  9
  9
 12
 13
  7
  6
  5
  5
  9
 10
 13
 14
 11
 12
  9
  7
  5
  5
  5
  6
  8
 11
  9
  8
 10
  8
  7
  8
  7
  2
  3
  2
  4
  4
  6
