P2
#   Image from aodalpha2aod.f 
#   pixsiz      0.500
#   lat0      2.000
#   lon0      2.000
 12 6
 255
 0 0 0 0 0 0 0 0 0 0 0 0
 0 0 0 0 0 0 0 0 0 0 0 0
 0 0 47 39 42 90 60 52 52 68 0 0
 0 0 33 55 62 70 85 64 67 56 0 0
 0 0 0 0 0 0 0 0 0 0 0 0
 0 0 0 0 0 0 0 0 0 0 0 0
