P2
# AOD map from AODSEM (100= aod 1)
# integration axis=3 from: 1 to:10
# pixsiz    1.000
# lat0      2.000
# lon0      2.000
     8      8
 255
 0 0 0 0 0 0 0 0
 0 0 0 0 0 0 0 0
 0 0 12 4 1 0 0 0
 0 0 4 6 2 1 0 0
 0 0 1 2 2 2 0 0
 0 0 0 1 2 4 0 0
 0 0 0 0 0 0 0 0
 0 0 0 0 0 0 0 0
