P2
# AOD map from AODSEM (100= aod 1)
# integration axis=3 from: 1 to:10
# pixsiz    1.000
# lat0      2.000
# lon0      2.000
     8      8
 255
 0 0 0 0 0 0 0 0
 0 0 0 0 0 0 0 0
 0 0 12 2 0 0 0 0
 0 0 2 2 1 2 0 0
 0 0 0 1 5 7 0 0
 0 0 0 3 7 8 0 0
 0 0 0 0 0 0 0 0
 0 0 0 0 0 0 0 0
