P2
# Aod map edited with writeaod
# pixsiz   1.000
# lat0   1.000
# lon0   1.000
 6 6
 255
 254 254 254 254 254 254
 254 254 254 254 90 254
 254 60 254 254 254 254
 254 254 254 254 15 254
 254 254 254 10 254 254
 40 254 254 254 254 254
