/* XPM */
static char *magick[] = {
/* columns rows colors chars-per-pixel */
"50 50 238 2",
"   c Gray0",
".  c #090916",
"X  c #0b0b15",
"o  c #0d0d13",
"O  c #0f0f13",
"+  c #0d0d1a",
"@  c #0f0f19",
"#  c #16160c",
"$  c #111117",
"%  c #131316",
"&  c #151515",
"*  c #161616",
"=  c Gray9",
"-  c #111118",
";  c #151518",
":  c #1a1a10",
">  c Gray10",
",  c #1d1d1d",
"<  c #1e1e1e",
"1  c Gray31",
"2  c Gray34",
"3  c #585858",
"4  c Gray35",
"5  c Gray37",
"6  c #6a6a7e",
"7  c #74747e",
"8  c #0b0bac",
"9  c #0d0da9",
"0  c #0000b3",
"q  c #0404b0",
"w  c #0707b0",
"e  c #0404bd",
"r  c #0d0db6",
"t  c #0909bc",
"y  c #0d0db8",
"u  c #0f0fb8",
"i  c #1313a6",
"p  c #1616b2",
"a  c #0000c0",
"s  c #6f6f89",
"d  c #7c7c89",
"f  c #7e7e88",
"g  c #8b7e7e",
"h  c #8c7b7b",
"j  c #8e7979",
"k  c #8f7a7a",
"l  c #8d7c7c",
"z  c #8c7f7f",
"x  c #8e7d7d",
"c  c #8f7e7e",
"v  c #916f6f",
"b  c #907272",
"n  c #917373",
"m  c #927070",
"M  c #937171",
"N  c #907676",
"B  c #927474",
"V  c #957272",
"C  c #967373",
"Z  c #917878",
"A  c #907b7b",
"S  c #907f7f",
"D  c #917f7f",
"F  c #927c7c",
"G  c #937d7d",
"H  c #947a7a",
"J  c #ee1111",
"K  c #ef1212",
"L  c #ef1717",
"P  c #ed1919",
"I  c #ee1a1a",
"U  c #ef1b1b",
"Y  c #f30e0e",
"T  c #f50c0c",
"R  c #f60d0d",
"E  c #fa0c0c",
"W  c #f11010",
"Q  c #f21111",
"!  c #f31313",
"~  c #f01414",
"^  c #f11515",
"/  c #f21616",
"(  c #f31717",
")  c #f51010",
"_  c #f71212",
"`  c #f41414",
"'  c #f51515",
"]  c #f61515",
"[  c #f01818",
"{  c #f11919",
"}  c #f21a1a",
"|  c #f31b1b",
" . c #f01d1d",
".. c #f11e1e",
"X. c #f21f1f",
"o. c #f31f1f",
"O. c #f51818",
"+. c #f41b1b",
"@. c #f61919",
"#. c #f61a1a",
"$. c #f71a1a",
"%. c #f51d1d",
"&. c #f61e1e",
"*. c #f71e1e",
"=. c #f91313",
"-. c #f81717",
";. c #fb1616",
":. c #f91818",
">. c #f81b1b",
",. c #fa1919",
"<. c #f81f1f",
"1. c #fc1b1b",
"2. c #fc1f1f",
"3. c #ef2020",
"4. c #f32020",
"5. c #f42121",
"6. c #f52121",
"7. c #f72323",
"8. c #f52525",
"9. c #f92121",
"0. c #f82424",
"q. c #f92525",
"w. c #fd2020",
"e. c #fc2424",
"r. c #fb2b2b",
"t. c #e1e10a",
"y. c #e1e117",
"u. c #868689",
"i. c #8a8686",
"p. c #8d8080",
"a. c #8e8181",
"s. c #8c8484",
"d. c #8d8585",
"f. c #8f8686",
"g. c #8c8888",
"h. c #8f8b8b",
"j. c #928080",
"k. c #afafaf",
"l. c #b2b2b2",
"z. c #b6b6b6",
"x. c #bfb7b7",
"c. c Gray72",
"v. c #b9b9b9",
"b. c #bbbbbb",
"n. c #bdb9b9",
"m. c #bebaba",
"M. c #bfbbbb",
"N. c #bcbcbc",
"B. c Gray74",
"V. c #bebebe",
"C. c Gray75",
"Z. c #c2adad",
"A. c #c4aeae",
"S. c #c5afaf",
"D. c #c8aeae",
"F. c #caacac",
"G. c #c1b0b0",
"H. c #c3b1b1",
"J. c #c2b5b5",
"K. c #c3b6b6",
"L. c #c4b2b2",
"P. c #c6b0b0",
"I. c #c7b1b1",
"U. c #c5b4b4",
"Y. c #c4b7b7",
"T. c #c6b5b5",
"R. c #c7b6b6",
"E. c #c2b9b9",
"W. c #c3baba",
"Q. c #c1bcbc",
"!. c #c2bdbd",
"~. c #c5b8b8",
"^. c #c4bbbb",
"/. c #c6b9b9",
"(. c #c7baba",
"). c #c7bebe",
"_. c #c8b2b2",
"`. c #c9b3b3",
"'. c #c8b7b7",
"]. c #cab4b4",
"[. c #c9b8b8",
"{. c #cab9b9",
"}. c #cbbaba",
"|. c #c0c0c0",
" X c #c1c1c1",
".X c Gray76",
"XX c #c3c3c3",
"oX c #c4c0c0",
"OX c #c6c2c2",
"+X c #c7c3c3",
"@X c Gray77",
"#X c #c5c5c5",
"$X c #c6c6c6",
"%X c Gray78",
"&X c #c9c0c0",
"*X c #c8c3c3",
"=X c #c8c4c4",
"-X c #c9c4c4",
";X c #c9c5c5",
":X c #cac5c5",
">X c #c8c8c8",
",X c Gray79",
"<X c #cecece",
"1X c Gray86",
"2X c gainsboro",
"3X c #dddddd",
"4X c Gray87",
"5X c #dfdfdf",
"6X c #f9dfdf",
"7X c #fddada",
"8X c Gray88",
"9X c #e1e1e1",
"0X c #f7e5e5",
"qX c #f6e9e9",
"wX c #f7eaea",
"eX c #f4efef",
"rX c #f6eded",
"tX c #f9e3e3",
"yX c #f8e6e6",
"uX c #fae4e4",
"iX c #fce2e2",
"pX c #fce6e6",
"aX c #fde7e7",
"sX c #f8ebeb",
"dX c #fae9e9",
"fX c #fbeaea",
"gX c #f9ecec",
"hX c #f8efef",
"jX c #faeded",
"kX c #fbeeee",
"lX c #fcebeb",
"zX c #fdebeb",
"xX c #f9f0f0",
"cX c #f8f4f4",
"vX c #f9f5f5",
"bX c #faf5f5",
"nX c #fdf0f0",
"mX c Gray100",
/* pixels */
"mXmXmXmXmXmXmXmXmXmXmXmXmXmXmXmXmXmXmXmXmXmXmXmXmXmXmXmXmXmXmXmXmXmXmXmXmXmXmXmXmXmXmXmXmXmXmXmXmXmX",
"mX8X3X3X3X3X3X3X3X3X3X3X3X3X3X3X8X8X8X3X3X8X8X8X8X3X3X3X3X3X3X3X3X3X3X3X3X3X3X3X3X3X3X3X3X3X3X1X<X1X",
"mX3X$X$X$X$X$X:XgX*X$X$X$X$X$X:XgXzXgX*X,XbXnXzXgX:X$X$X$X$X$XXXV.XXXXV.XX$X$X$X$X$XXXV.XXXXV.V.5 4 ",
"mX3X$XXXXX$X:XyX7.R.!.XXXX$X:X0X<.#.*.R.:XgXw.:.*.].qXoXXXXXXXv., k.k., z.V.V.V.V.V.z., k.k., l.4 4 ",
"mX3X$XXXXX$XgX<.V | R.XXXX$XgX<.B h A | ~.yX-.b h | *.R.oXXXXXz.* * * o 7 d d d d d 7 o * * * k.4 4 ",
"mX3X$XXXXX$XfX#.v K z XX$X:XyX| z V.J.| G L./ h m.J.H | R.XXXXz.> 8X8X@ 8 p p u t t w @ 8X8X> k.4 4 ",
"mX3X$XXX$X:XyX| B L h m.$XqX*.A m.XXoXL.| b K h V.XXJ.| G m.XXz.> 8X8X@ 9 y.y.r a a 0 @ 8X8X> k.4 4 ",
"mX3X$XXX$XgX<.A x.A.| p.XX[./ h V.XXXXR./ v K z V.XX).L.| p.|.z.* > > . 9 y.y.r a a 0 . > > * k.4 4 ",
"mX3X$XXX$XfX#.z V.R./ z V.R./ z V.XXXXR./ v K z V.XXXXR./ z V.z.> 8X8X@ w r r e a a 0 @ 8X8X> k.4 4 ",
"mX3X$X$X:XiX=.B L.F.) B m.R./ z V.XXXXR./ v K h V.XXXXR./ z V.z.> 8X8X@ 0 a a a a a 0 @ 8X8X> k.4 4 ",
"mX3X$X$XgX1.R W / W R W p.L./ h V.XXXXR./ v K h V.XXXXR./ z V.z.* > > . w t t t t t w . > > * k.4 4 ",
"mX3X$X$XfX:.b h z z B W z G./ z V.XXXXR./ v K z V.XXoXL.| p.!.z.> 8X8X- 6 s s s s s 6 - 8X8X> k.4 4 ",
"mX3X$X:XyX| z V.V.V.R.| h G.| A !.XXoXL.| b K h V.XX~.| h m.XXz.> 8X8X@ w u p p u t w @ 8X8X> k.4 4 ",
"mX3X>XgX<.A m.XXXXXXoXL./ z A.| J.XX~.| h Z./ z m.~.F.| z !.XXz.* > > . 0 r y.y.r a 0 . > > * k.4 4 ",
"mX3X,XfX#.z V.XXXXXXXXR./ z J.#.H L.F.| p.L.` B A.| | z m.XXXXz.> 8X8X@ 0 r y.y.r a 0 @ 8X8X> k.4 4 ",
"mX3X,XfX4.z V.XXXXXXXX~. .z m.R.| / L z m.~.#.W L h p.m.XXXXXXz.> 8X8X@ 0 e r r e a 0 @ 8X8X> k.4 4 ",
"mX3X$XoXE.i.XXXXXXXXXXoXE.g.|.oXR.z g i.XX!.R.z p.m.XXXXXXXXXXz.* > > . 0 a a a a a 0 . > > * k.4 4 ",
"mX3X$X|.V.V.V.V.V.V.V.V.V.N.V.XXXX|.V.XXXXXXXX|.XXXXXXXXXXXXXXz.> 8X8X@ w t t t t t w @ 8X8X> k.4 4 ",
"mX3XXXu.d d d d d d d d d d d u.V.XXXXXXXXXXXXXXXXXXXXXXXXXXXXz.> 8X8X- 6 s s s s s 6 - 8X8X> k.4 4 ",
"mX3XXXd u t t t t t t t t t u d V.XXXXXXXXXXXX$X$XXXXXXXXXXXXXz.* > > . w t t t t t w . > > * k.4 4 ",
"mX3XXXd t e r r e a a a a a t d V.XXXXXXXXXXXX$XeX).oX@XXXXXXXz.> 8X8X@ 0 a e r r e 0 @ 8X8X> k.4 4 ",
"mX3XXXd t r y.y.r a a a a a t d V.XXXXXXXXXXXX$X).8.R.oXXXXXXXz.> 8X8X@ 0 a r y.y.r 0 @ 8X8X> k.4 4 ",
"mX3XV.d t r y.y.r a a a a a t d V.$X$X$X$X$X$X$X:X[.0.].oXXXXXz.* > > . 0 a r y.y.r 0 . > > * k.4 4 ",
"mX3XXXd t e r r e a a a a a t d V.:XgXfXfXfXfXfXfXpX7X:._.oXXXz.> 8X8X@ 0 a e r r e 0 @ 8X8X> k.4 4 ",
"mX3XXXd t a a a a a a a a a t d XXeX0.:.#.#.#.#.#.#.=.E #.~.XXz.> 8X8X@ w t t t t t w @ 8X8X> k.4 4 ",
"mX3XV.d t e a a a a a a a a t d V.oX~.z z h z z z h b W G !.XXz.* > > o 6 s s s s s 6 o > > * k.4 4 ",
"mX3XV.d t a a a a a a a a a t d V.XXXX!.V.V.V.V.m.G.P z m.XXXXz.> 8X8X@ w t t t t t w @ 8X8X> k.4 4 ",
"mX3XXXd t a a a a a a a a a t d V.XXXXXXXXXXXXXX~.3.z m.XXXXXXz.> 8X8X@ 0 a a e r r w @ 8X8X> k.4 4 ",
"mX3X|.d t a a a e a a a a a t d V.XXXXXXXXXXXXXX!.f.m.XXXXXXXXz.* > > . 0 a a r y.y.9 . > > * k.4 4 ",
"mX3X|.f u t t t t t t t t t r f V.XXXXXXXXXXXXXXXXXXXXXXXXXXXXz.> 8X8X@ 0 a a r y.y.9 @ 8X8X> k.4 4 ",
"mX3XXXu.d d d d d d d d d d f u.XXXXXXXXXXXXXXXXXXXXXXXXXXXXXXz.> 8X8X@ 0 a a e r r w @ 8X8X> k.4 4 ",
"mX3X@XXXV.V.XXXXXXXXXXXXXXXXXX$X$X$X$X$X$X$X$XXXXXXXXXXXXXXXXXz.* > > . w t t t t t w . > > * k.4 4 ",
"mX3X$XXX$X*XgXfXfXfXfX:XcXgXfXfXfXfXfX:XbXeXoXXXXXXXXX$X$X$XXXz.> 8X8X- 6 s s s s s 6 - 8X8X> k.4 4 ",
"mX3X$X$X*X0X<.#.#.#.*.[.fX<.:.#.#.#.4.).gXe._.oXXXXX@X:XeXoXXXz.> 8X8X@ w t t t t t w @ 8X8X> k.4 4 ",
"mX3X$X:XyX7.A z z z h 3.F.` b h z z z g.0X-.` R.oXoX$XyX9.~.XXz.* > > . 0 a a a a a 0 . > > * k.4 4 ",
"mX3X>XgX<.A m.V.V.V.m.p.A / h v.V.V.V.XX].` V  .].*XyX:.R z XXz.> 8X8X@ 0 a a a e r 9 $ 8X8X> k.4 4 ",
"mX3X,XfX*.h m.XXXXXXXXXXL./ z V.XXXXXXXX]./ h G.7.6X7.V W z V.z.> 8X8X@ 0 a a a r y.t.: 8X8X> k.4 4 ",
"mX3X$XoXR. .G R.R.~.oXXXR.` b L.~.oXXXXXR./ z m.].7.j.A./ h V.z.* > > . 0 a a a r y.t.# > > * k.4 4 ",
"mX3X$XXXoXR.#.#.#.*.R.!.R.) Y /  .E.XXXXR./ h V.XX~.!.R./ h V.z.> 8X8X@ w t t t u p i $ 8X8X> k.4 4 ",
"mX3X$XXXXXoX~.R.R._. .G A.W b h z g.XXXXR./ z V.XXXXXXR./ z V.z.> 8X8X; 7 d d d d d 7 ; 8X8X> k.4 4 ",
"mX3X$X$X$X$X$XXXXXoXL./ b K h v.V.XXXXXXR./ h V.XXXXXXR./ z V.z.* > > * l.V.V.V.V.V.l.* > > * k.4 4 ",
"mX3X$X:XxXbX,X$X$XoX_.| b K z V.XXXXXXXXR./ z V.XXXXXXR./ h V.z.> 8X8X> z.XXXXXXXXXXz.> 8X8X> k.4 4 ",
"mX3X>XeXr.pXzXfXfXtX .z A.W B L.R.R.R.~._./ z V.XXXXXXR./ h V.z.> 8X8X> z.XXXXXXXXXXz.> 8X8X> k.4 4 ",
"mX3X$XoX].*.#.#.#.| G V.~.#.W / / / /  .A.P z V.XXXXXX~.P g V.z.* * * * z.XXXXXXXXXXz.* * * * k.4 4 ",
"mX3X$XXX!.p.z z z z m.XXoXR.z z z z h z f.x.i.XXXXXXXX!.s.i.V.v., k.k., v.XXXXXXXXXXv., k.k., l.4 4 ",
"mX3X$XXXXX|.V.V.V.XXXXXXXXXX!.V.V.V.V.V.V.XXXXXXXXXXXXXXXXXXXXXXV.XXV.V.XXXXXXXXXXXXXXv.XXXXV.v.4 4 ",
"mX3X$XXXXXXXXXXXXXXXXXXXXXXXXXXXXXXXXXXXXXXXXXXXXXXXXXXXXXXXXXXXXXXXXXXXXXXXXXXXXXXXXXXXXXXXXXv.4 4 ",
"mX1XV.V.N.N.N.N.V.m.v.V.V.v.V.V.v.V.V.v.V.V.v.V.V.v.V.V.v.V.V.V.V.v.V.V.v.V.V.v.V.V.V.V.v.V.V.z.2 4 ",
"mX<X5 4 4 4 4 4 4 4 4 4 4 4 4 4 4 4 4 4 4 4 4 4 4 4 4 4 4 4 4 4 4 4 4 4 4 4 4 4 4 4 4 4 4 4 4 2 1 4 ",
"mX                                                                                                  "
};
