P2
# Aod map edited with writeaod
# pixsiz   1.000
# lat0   0.000
# lon0   0.000
 22 12
 255
 12 12 14 16 13 11 10 12 10 5 8 19 19 15 13 10 10 11 16 11 10 10
 23 22 16 12 17 14 15 33 255 255 255 255 255 255 255 255 255 19 21 24 29 22
 23 19 15 11 8 10 12 17 255 19 16 21 255 15 18 14 255 6 7 9 9 12
 12 12 14 16 13 11 10 12 255 5 8 19 255 15 13 10 255 11 16 11 10 10
 23 22 16 12 17 14 15 33 255 19 19 25 255 14 12 11 255 19 21 24 29 22
 23 19 15 11 8 10 12 17 255 255 255 255 255 255 255 255 255 6 7 9 9 12
 12 12 14 16 13 11 10 12 255 5 8 19 255 15 13 10 255 11 16 11 10 10
 23 22 16 12 17 14 15 33 255 19 19 25 255 14 12 11 255 19 21 24 29 22
 23 19 15 11 8 10 12 17 255 19 16 21 255 15 18 14 255 6 7 9 9 12
 12 12 14 16 13 11 10 12 255 255 255 255 255 255 255 255 255 11 16 11 10 10
 23 22 16 12 17 14 15 33 22 19 19 25 24 14 12 11 11 19 21 24 29 22
 23 19 15 11 8 10 12 17 22 19 16 21 17 15 18 14 7 6 7 9 9 12
