P2
# aod map normalized with normalize.f
# pixsiz   4.000
# lat0  33.000
# lon0 267.000
 11 6
 255
 35 35 41 46 38 32 29 35 29 14 23 55 55 43 38 29 29 32 46 32 29 29 67 64 46 35
 49 41 43 96 64 55 55 72 69 41 35 32 32 55 61 69 84 64 67 55 43 32 23 29 35 49
 64 55 46 61 49 43 52 41 20 17 20 26 26 35
