P2
# image d epaisseurs optiques interpolee par interp.f, (100=aod 1)
# pixsiz    0.500
# lat0     33.000
# lon0    267.000
 12 6
 255
 13 13 13 13 13 13 19 19 19 19 19 19
 13 13 13 13 13 13 19 19 19 19 19 19
 24 24 24 24 24 24 25 25 25 25 25 25
 24 24 24 24 24 24 25 25 25 25 25 25
 24 24 24 24 24 24 25 25 25 25 25 25
 24 24 24 24 24 24 25 25 25 25 25 25
