P2
# image d epaisseurs optiques interpolee par interp.f, (100=aod 1)
# pixsiz    1.000
# lat0     32.260
# lon0    265.470
 45 24
 255
254
254
254
254
254
254
254
254
  4
  3
  4
  2
  3
254
254
  1
 22
 17
 11
  9
 14
254
254
254
254
254
254
254
254
254
254
254
254
254
254
254
254
254
254
254
254
254
254
254
254
254
254
254
254
254
254
254
254
254
254
  3
  3
  5
254
254
 31
 22
 17
 10
  8
 13
 13
  9
254
254
254
254
254
254
254
254
254
254
254
254
254
254
  4
  4
254
254
254
254
254
254
254
254
254
254
254
254
254
254
254
254
254
254
254
254
254
254
 28
 22
 12
  8
  9
  8
  9
 10
254
254
254
254
254
254
254
254
254
254
254
254
254
254
254
254
254
254
254
254
254
254
254
254
254
254
254
254
254
254
254
254
254
254
254
254
254
254
 13
254
 18
 11
  6
  6
  7
  9
  8
254
254
254
254
254
254
254
254
254
254
254
254
254
254
254
254
254
254
254
254
254
254
254
254
254
254
254
254
254
254
254
254
254
254
254
254
 13
254
 22
 12
  9
  3
  6
  3
  5
 10
 12
254
254
254
254
254
254
254
254
  2
  2
254
254
254
254
254
254
254
254
254
254
254
254
254
254
 15
 13
 15
 16
 13
  9
  8
 11
  9
254
  9
  7
  8
  7
  2
  4
  7
  5
  7
 12
 10
 13
  8
  6
254
  2
  2
  1
  1
  1
  2
254
254
254
254
254
254
254
254
254
254
254
254
254
254
 10
 12
 13
 15
 12
  8
 11
 11
 12
 11
  9
  9
  8
  5
  3
  4
  3
  5
  7
  8
  7
  8
  7
  7
  7
  6
  2
  1
  1
  2
  7
 21
254
254
254
254
254
254
254
254
254
254
254
254
254
 20
 20
 10
  8
 11
  7
 10
 18
 21
 12
 11
  6
  6
  4
  4
  7
  8
  8
  4
  3
  4
  2
  5
 18
 14
  6
  2
  2
  3
  6
 44
 92
  3
254
254
254
254
254
254
254
254
254
254
254
254
 33
 31
 23
  8
  6
  6
  7
 12
 28
 21
 14
 11
  7
  4
  4
  5
  2
  7
  7
  7
  5
  4
  4
 15
 24
 14
  6
  7
 13
 19
 20
  7
  5
254
254
254
254
254
254
254
254
254
254
254
254
254
 16
 14
 10
  8
  9
  5
  7
 17
 27
 23
 16
 10
 10
 14
  7
  3
  2
  8
  9
 11
 22
 29
 22
 30
 19
 19
 38
 20
 16
  9
  7
254
254
254
254
254
254
254
254
254
254
254
254
254
254
254
 25
 16
 19
 28
 17
 10
  5
 18
 29
 28
 23
 20
 19
 12
 12
  7
 10
  6
 12
 16
 30
 21
 39
 37
 36
 18
  9
 12
 14
254
254
254
254
254
254
254
254
254
254
254
254
254
254
 24
 27
254
 22
 17
 38
 14
  5
  5
  5
 12
 31
 35
 31
 26
 14
 12
 13
 20
  9
  7
  7
  5
  6
  8
  8
  8
  7
  9
 14
 13
254
254
254
254
254
254
254
254
254
254
254
254
254
254
 27
 24
 10
 20
 10
254
 12
 10
  3
 11
 13
 10
 11
 14
 19
 22
 33
 27
 27
 20
 13
 11
 13
 10
 10
 11
 12
 15
 19
 22
254
254
254
254
254
254
254
254
254
254
254
254
254
254
254
254
254
254
254
 11
 19
254
 19
 11
  7
  5
  3
  2
  2
  4
  6
 17
 37
 33
 34
 25
 20
 20
 23
 20
 21
 22
 25
 23
254
254
254
254
254
254
254
254
254
254
254
254
254
254
254
254
254
 23
 14
 13
254
254
254
  8
254
254
  4
  5
  5
  3
  2
  2
  1
  6
 20
 28
 26
 24
 23
 23
 22
 21
 22
 21
254
254
254
254
254
254
254
254
254
254
254
254
254
254
254
254
254
254
 23
 15
 16
254
254
 12
 12
 17
254
 17
 13
 13
  8
 11
254
254
254
254
 14
 16
 18
 21
 23
 20
 18
 18
 17
254
254
254
254
254
254
254
254
254
254
254
254
254
254
254
254
254
254
254
  3
  6
254
254
 16
 14
 17
 13
254
 32
 11
 10
 17
254
254
254
254
254
254
 20
 21
 28
 30
 28
 23
254
254
254
254
254
254
254
254
254
254
254
254
254
254
254
254
254
254
254
254
254
254
254
254
254
254
254
  8
  1
 12
  2
 11
254
254
254
254
254
254
254
 19
 24
 32
 27
 28
 40
254
254
254
254
254
254
254
254
254
254
254
254
254
254
254
254
254
254
254
254
254
254
254
254
254
  8
  6
  1
  2
254
  8
  7
254
254
254
254
254
  9
 14
 23
 18
 22
 22
 20
254
254
254
254
254
254
254
254
254
254
254
254
254
254
254
254
254
254
254
254
254
254
254
254
254
254
  8
  5
  5
254
254
254
254
254
254
  7
  8
254
  8
  8
 10
 11
 13
 12
  8
254
254
254
254
254
254
254
254
254
254
254
254
254
254
254
254
254
254
254
254
254
254
254
254
254
254
 11
  9
  6
  4
  5
254
254
254
  4
  6
  7
  4
  6
  8
 12
 11
  9
  8
254
254
254
254
254
254
254
254
254
254
254
254
254
254
254
254
254
254
254
254
254
254
254
254
254
254
254
 12
  6
  3
 14
254
254
254
254
  4
  4
  3
  3
  3
  4
  5
  6
  7
  4
254
254
254
254
254
254
254
254
254
254
254
254
254
254
254
254
254
254
254
254
254
254
254
254
254
254
254
254
 39
 21
 29
254
254
254
254
254
  2
  4
  5
  6
  4
  2
  3
  5
  3
254
254
254
254
254
254
254
254
254
254
254
254
254
254
254
254
254
254
254
254
254
254
254
254
254
254
254
254
254
 16
 29
254
254
254
254
254
  8
  9
  5
  3
  2
  2
  2
  3
254
254
254
254
254
254
254
254
254
254
254
254
254
254
