P2
#   Composite image for date: img_t1+t2+t3_hr
 45 24
 255
 7 9 3 8 9 254 254 254 4 8 7 6 10 254 254 5 15 14 11 11 13 254 254 254 254 254
 254 254 254 254 254 254 254 254 254 254 254 254 254 254 254 254 254 254 254
 6 4 4 8 8 254 254 254 254 254 6 7 13 254 254 26 17 14 11 10 12 13 9 254 254 254
 254 254 254 254 254 254 254 254 254 254 254 4 4 254 254 254 254 254 254
 5 4 254 254 254 254 254 254 254 254 65 254 33 254 254 254 20 17 12 8 9 8 9 10
 254 254 254 254 254 254 254 254 254 254 254 254 254 254 254 254 254 254 254 254
 254
 16 21 254 254 254 254 254 254 254 254 254 254 254 254 254 254 19 15 254 18 11 6
 6 7 9 8 254 254 254 254 254 254 254 254 254 254 254 254 254 254 254 254 254 254
 254
 14 21 254 254 254 254 254 254 4 21 254 254 8 12 13 254 254 16 254 22 12 9 3 6 3
 5 10 12 254 254 254 254 254 254 254 254 2 2 254 254 254 254 254 254 254
 13 254 254 254 254 254 254 10 10 15 15 11 9 9 11 11 254 9 7 8 7 2 4 7 5 7 12 10
 13 8 6 254 2 2 1 1 2 3 254 254 254 254 254 254 254
 17 25 25 42 254 254 254 10 9 9 12 10 9 13 17 12 11 9 9 8 5 3 4 3 5 7 8 7 8 7 7
 7 6 2 1 2 4 7 21 254 254 254 254 254 254
 6 254 254 254 254 254 27 22 21 9 6 8 5 7 18 21 12 11 6 6 4 4 7 8 8 4 3 4 2 5 18
 14 4 2 6 17 13 28 49 8 6 8 6 254 254
 254 254 254 23 22 30 254 42 33 26 7 4 4 4 12 28 21 14 11 7 4 4 5 2 7 7 7 5 4 4
 15 24 20 14 18 25 21 17 10 3 7 20 20 254 254
 29 254 254 254 254 254 78 254 21 11 12 6 5 4 7 17 27 23 16 10 10 14 7 3 2 8 9
 11 22 29 22 30 33 32 34 20 18 14 13 21 254 254 254 254 254
 254 24 19 16 254 11 9 18 19 25 16 25 28 17 10 5 18 29 28 23 20 19 12 12 7 10 6
 12 16 30 21 39 32 33 16 12 14 14 254 254 254 254 254 254 254
 254 254 27 35 43 254 5 20 21 254 22 17 38 14 5 5 5 12 31 35 31 26 14 12 13 20 9
 7 7 5 6 8 10 13 18 9 14 13 254 254 254 254 254 254 254
 254 254 254 8 31 35 254 21 19 10 20 10 254 12 10 3 11 13 10 11 14 19 22 33 27
 27 20 13 11 13 10 10 20 20 24 34 22 254 254 254 254 254 254 254 254
 254 254 254 254 44 58 254 14 15 254 254 11 19 254 19 11 7 5 3 2 2 4 6 17 37 33
 34 25 20 20 23 34 33 22 25 23 254 254 254 254 254 254 254 254 254
 254 254 254 254 254 254 254 254 23 14 13 254 254 254 8 254 254 4 5 5 3 2 2 1 6
 20 28 26 24 23 23 25 24 24 23 31 42 254 254 254 254 254 28 254 254
 254 254 254 254 254 254 254 254 23 15 16 254 254 12 12 17 254 17 13 13 8 11 254
 254 254 254 14 16 18 21 23 25 24 23 22 32 36 30 39 44 254 30 254 254 254
 254 254 254 254 254 254 254 254 254 3 6 254 254 16 14 17 13 254 32 11 10 17 254
 254 254 254 254 254 20 21 28 37 31 25 28 31 42 42 35 29 32 18 13 254 254
 254 254 254 254 254 254 254 254 254 254 254 254 254 254 254 254 8 1 12 2 11 254
 254 254 254 254 254 254 19 24 32 30 32 35 30 31 33 28 24 29 254 4 254 254 254
 254 254 254 254 254 254 254 254 254 254 254 254 254 254 8 6 1 2 254 8 7 254 254
 254 254 254 9 14 23 18 22 26 24 29 25 28 29 25 21 13 254 254 254 254 254
 254 254 254 254 254 254 254 254 254 254 254 254 254 254 8 5 5 254 254 254 254
 254 254 7 8 254 8 8 10 11 13 13 12 18 21 29 15 9 7 8 18 5 254 254 254
 254 254 254 254 254 254 254 254 254 254 254 254 254 254 11 9 6 4 5 254 254 254
 4 6 7 4 6 8 12 11 9 9 7 6 2 3 7 12 20 254 34 16 254 254 254
 254 254 254 254 254 254 254 254 254 254 254 254 254 254 12 6 3 14 254 254 254
 254 4 4 3 3 3 4 5 6 7 3 3 254 5 3 3 3 3 5 10 254 254 254 254
 254 254 254 254 254 254 254 254 254 254 254 254 254 254 254 39 21 29 254 254
 254 254 254 2 4 5 6 4 2 3 5 4 5 5 7 3 5 254 12 4 254 254 254 254 254
 254 254 254 254 254 254 254 254 254 254 254 254 254 254 254 254 16 29 254 254
 254 254 254 8 9 5 3 2 2 2 10 3 4 10 10 10 5 7 14 13 254 254 254 254 254
