P2
# image d epaisseurs optiques interpolee par interp.f, (100=aod 1)
# pixsiz    0.500
# lat0     35.000
# lon0    270.000
 80 40
 255
 6 6 6 6 7 7 8 8 8 8 7 6 6 5 4 4 4 4 5 5 6 7 9 11 14 19 22 21 17 13 10 7 7 9 12
 15 18 19 19 19 19 19 18 18 18 18 18 17 15 13 11 9 7 7 7 7 8 8 9 10 11 14 18 25
 33 41 47 50 48 44 38 31 26 22 20 19 19 19 18 18
 6 5 5 6 6 7 8 8 8 8 7 6 5 4 4 4 4 4 5 5 6 7 9 11 13 21 26 26 19 13 9 7 6 8 12
 16 19 20 19 19 19 19 18 18 18 19 19 17 14 12 10 8 7 7 7 7 8 8 9 9 10 12 16 23
 33 44 52 54 50 44 37 30 25 22 20 19 19 18 18 18
 7 7 6 6 6 7 8 9 8 8 7 6 5 4 4 4 4 4 4 5 6 7 8 9 12 21 28 28 18 11 7 6 5 7 11 15
 20 21 20 19 19 19 19 18 19 20 20 18 14 11 9 7 6 6 7 7 8 8 9 9 10 11 14 20 31 46
 58 59 53 43 35 28 24 21 19 19 18 18 18 18
 9 9 8 7 7 8 10 12 11 10 9 8 7 5 4 4 4 4 4 5 5 6 7 9 11 19 27 26 17 8 6 6 5 6 9
 13 18 20 20 18 18 18 18 18 18 19 20 17 14 10 8 7 6 6 6 7 7 8 9 10 10 11 12 18
 28 43 56 58 50 40 32 26 22 20 19 18 18 18 18 18
 11 11 9 8 7 9 13 14 14 12 11 10 9 6 5 5 5 4 4 5 5 5 7 8 10 13 17 15 11 6 5 6 7
 7 9 11 15 17 18 17 16 17 18 18 18 18 18 15 12 9 7 6 5 5 6 6 7 7 8 10 10 11 11
 15 22 33 42 45 41 34 28 23 20 18 17 17 17 17 17 17
 13 13 13 11 12 15 20 22 22 18 14 12 11 9 9 8 6 5 5 5 5 5 6 7 8 8 10 9 8 7 6 7 8
 8 9 10 13 14 15 15 14 15 17 18 18 17 15 13 11 8 6 5 5 5 5 6 6 7 7 9 9 10 10 13
 17 22 27 29 28 26 23 20 18 17 16 16 16 16 16 16
 15 15 14 13 15 17 22 26 25 21 15 12 10 8 9 8 6 5 5 4 4 5 6 6 6 8 8 8 8 8 8 8 9
 10 10 9 9 9 10 10 11 14 19 23 24 20 15 12 10 7 5 5 5 5 5 5 5 6 6 7 7 7 7 9 11
 13 15 18 19 19 18 16 15 15 14 14 15 15 15 15
 18 19 19 19 19 20 24 28 28 23 17 13 11 9 9 9 6 4 3 3 3 5 7 8 8 8 9 10 10 10 10
 9 10 10 9 7 6 6 6 6 8 11 19 24 23 18 13 11 10 8 7 5 5 4 5 5 5 5 5 5 5 6 6 7 8 9
 9 11 13 14 14 14 13 13 13 13 13 13 13 13
 20 21 22 22 20 20 22 25 25 21 18 15 12 8 6 6 5 4 3 4 4 5 7 9 10 10 11 11 11 11
 11 10 10 11 10 8 5 5 5 6 8 13 20 25 24 18 12 9 8 8 7 6 5 4 4 5 4 4 4 3 3 3 3 4
 4 5 6 8 10 10 11 11 11 11 11 12 12 12 12 12
 21 22 23 24 22 20 20 23 24 23 22 20 15 10 8 7 5 4 4 6 6 6 7 8 10 9 10 10 12 13
 12 12 11 11 11 11 9 8 9 11 12 15 18 23 22 17 10 7 7 9 8 8 6 5 5 5 4 4 3 2 2 2 3
 3 4 5 6 7 8 8 9 9 10 10 10 10 11 11 11 11
 20 21 24 26 25 23 21 21 21 21 22 21 17 12 10 8 6 6 7 8 7 6 6 6 8 9 10 11 12 14
 14 13 11 11 12 12 12 11 11 13 14 16 18 21 20 17 10 7 7 10 11 11 9 6 5 4 4 3 2 2
 2 2 2 3 4 4 5 6 6 7 7 8 8 9 9 10 10 10 10 10
 18 18 20 22 23 22 20 22 23 26 26 25 21 17 12 8 6 6 7 8 8 7 7 6 7 8 9 11 13 14
 15 14 14 14 15 16 15 13 13 14 14 15 15 18 19 18 14 11 11 12 13 14 11 7 5 4 4 3
 2 2 2 2 2 3 3 4 4 5 5 6 6 7 7 7 8 9 9 10 10 10
 15 15 15 17 19 20 22 24 25 26 25 23 19 14 10 7 6 7 8 8 8 7 6 6 7 9 10 11 13 14
 15 15 16 17 17 17 16 15 14 14 15 14 15 15 16 16 16 14 13 13 14 14 12 8 6 4 4 3
 2 2 2 2 2 3 3 4 4 4 4 5 5 6 6 7 7 8 9 9 9 9
 13 11 10 10 13 15 19 23 27 28 27 24 19 14 10 8 7 7 7 7 8 7 7 6 8 10 12 13 14 14
 15 15 17 18 19 18 18 17 15 16 17 17 18 17 19 18 17 16 15 14 14 13 11 9 6 4 3 3
 3 3 3 3 3 3 3 3 4 4 4 4 5 5 6 6 7 7 8 9 9 9
 11 10 9 8 10 11 16 19 22 22 23 21 19 16 14 12 11 8 7 7 7 7 7 8 13 16 17 15 14
 14 16 18 20 20 21 21 21 20 19 19 21 22 22 19 17 15 14 15 16 17 16 14 12 9 6 3 3
 3 3 3 3 3 3 3 3 3 3 4 4 4 4 5 5 6 6 7 8 9 9 9
 10 10 10 9 7 6 9 12 15 16 18 20 21 21 20 16 12 8 6 7 7 8 9 10 14 16 17 14 15 16
 17 19 20 21 21 21 21 20 18 19 22 24 24 20 16 15 15 15 16 18 18 17 13 13 9 6 3 4
 5 4 3 3 3 3 2 3 3 3 3 4 4 4 5 5 6 7 8 8 9 8
 9 9 9 8 5 3 5 7 11 13 14 16 18 23 24 21 16 10 8 8 8 10 12 14 19 20 19 15 14 16
 19 22 22 22 21 21 21 21 21 21 24 27 25 20 14 13 14 16 16 20 20 19 14 14 10 8 4
 4 5 5 3 3 3 3 3 3 3 4 4 4 4 4 5 5 5 6 7 8 8 8
 8 8 8 6 5 5 8 11 11 11 10 12 18 26 30 28 21 14 10 9 9 12 16 20 22 20 18 15 15
 17 20 22 20 17 15 16 18 18 19 21 23 26 25 21 16 15 15 15 15 17 19 19 15 14 11
 10 7 7 7 5 3 3 3 3 3 4 4 4 4 4 4 4 4 5 6 6 7 8 8 8
 8 7 7 7 8 11 15 17 14 12 10 12 19 26 35 40 34 25 14 12 12 16 22 27 29 30 27 22
 18 18 21 21 18 15 13 15 17 18 19 20 22 24 24 20 17 14 13 11 11 13 16 16 13 11 9
 10 9 8 6 4 3 3 4 4 4 4 4 4 4 3 4 4 4 4 5 6 7 7 8 8
 8 8 9 9 12 16 22 24 20 15 14 15 21 24 31 36 32 24 12 12 15 19 24 27 33 35 33 26
 21 20 21 21 19 17 16 16 16 16 16 16 17 18 19 18 16 12 10 8 9 11 13 12 10 8 7 8
 9 7 5 3 3 4 4 5 4 4 4 4 4 3 4 3 4 4 5 6 6 7 8 9
 9 9 10 10 13 17 20 20 18 16 17 18 20 19 23 29 26 20 10 14 19 22 24 32 47 58 53
 39 27 22 21 20 20 20 19 18 18 19 20 17 15 12 12 11 10 8 6 5 7 10 10 9 6 5 4 4 5
 4 3 2 3 4 4 4 4 4 4 4 3 3 3 3 4 4 5 6 6 8 9 10
 10 11 10 11 15 20 20 17 14 16 20 22 23 25 24 23 16 11 7 12 21 23 23 28 41 53 49
 37 27 23 22 20 21 22 21 18 17 19 21 19 14 8 6 6 5 5 4 4 8 10 10 6 3 2 2 2 2 2 2
 2 3 4 4 4 3 3 4 4 3 3 3 3 4 5 5 8 10 12 12 13
 11 11 11 12 16 23 21 15 11 15 20 23 27 31 30 26 16 11 10 15 21 21 22 27 36 42
 39 33 27 23 22 19 19 19 19 18 16 17 20 18 13 6 4 3 3 3 3 4 5 6 6 4 3 2 2 2 2 2
 2 3 3 4 3 4 3 3 4 3 3 3 3 4 4 5 8 15 18 19 15 15
 11 11 12 13 20 28 27 19 14 17 22 24 31 35 34 28 18 13 11 14 16 17 19 19 17 13
 14 17 20 20 19 17 16 16 17 17 14 14 14 14 10 7 6 5 4 3 3 3 4 4 4 3 3 3 3 2 2 2
 2 3 3 4 4 4 3 3 3 3 3 3 3 4 5 6 12 21 24 23 18 18
 10 10 11 12 19 27 29 24 22 22 25 26 32 34 32 24 18 13 12 12 12 12 15 17 16 14
 13 15 17 17 17 15 14 13 14 15 14 13 11 11 10 10 10 9 7 6 4 4 4 4 4 4 4 3 3 3 3
 3 3 3 3 4 4 4 4 3 3 3 3 3 4 4 5 8 17 25 27 23 19 19
 10 9 10 10 15 21 26 25 25 26 29 32 36 33 28 21 18 13 11 8 8 10 12 13 15 15 15
 14 14 14 15 13 12 11 12 13 13 12 11 12 12 13 13 13 12 10 8 6 5 5 5 5 5 4 4 3 3
 3 3 4 4 4 5 5 4 3 3 3 3 3 4 4 6 12 20 25 24 20 19 19
 9 8 7 8 11 16 21 25 28 29 31 33 35 32 28 20 18 13 10 8 7 8 9 10 13 15 16 14 13
 12 12 11 10 9 10 11 11 11 11 12 12 14 14 15 15 15 12 10 8 7 7 8 8 8 8 7 6 6 5 5
 4 4 5 5 5 4 4 4 4 4 4 6 10 16 22 23 21 18 19 20
 10 8 7 8 11 14 17 20 25 31 35 38 38 33 30 21 18 11 10 8 9 10 10 10 9 10 11 12
 12 10 10 9 8 8 8 9 10 12 12 11 10 11 12 15 16 20 20 18 12 9 8 8 9 9 9 9 8 7 6 6
 6 5 5 5 5 4 4 4 4 5 6 9 14 19 22 21 19 18 19 20
 12 10 10 13 18 20 20 21 26 34 38 37 33 26 25 18 16 9 9 8 9 10 10 9 7 7 8 9 9 8
 8 8 7 7 7 8 10 12 13 11 10 10 11 13 15 19 24 24 19 13 10 9 8 9 9 10 9 8 7 7 7 6
 6 5 5 4 5 5 6 7 9 13 17 20 20 19 19 20 20 20
 14 13 14 18 24 26 25 25 29 37 41 36 28 19 17 12 10 6 6 7 8 8 7 6 5 5 5 6 7 8 10
 9 10 8 8 9 9 10 11 9 8 8 10 12 13 18 22 25 22 16 11 9 7 6 7 8 8 7 8 7 8 7 7 6 5
 5 5 6 7 9 12 15 17 19 19 19 20 21 21 21
 17 16 19 22 26 27 28 27 32 37 38 30 19 11 7 5 4 4 4 4 4 3 3 3 4 4 4 5 5 7 10 10
 10 8 8 8 8 9 8 8 7 8 9 11 12 13 16 18 19 16 13 10 8 7 7 8 8 7 8 7 8 7 7 6 6 6 7
 9 10 12 14 15 16 17 20 21 22 22 21 21
 19 19 22 24 27 26 28 28 33 38 39 31 19 11 6 4 4 4 4 3 2 2 2 2 3 3 4 4 5 6 9 9 9
 8 8 8 7 7 6 7 7 8 8 10 11 12 13 15 15 13 11 10 10 9 9 9 9 8 8 8 8 8 8 7 7 8 9
 11 12 13 14 14 15 17 20 22 23 22 22 22
 21 21 24 24 25 23 24 24 29 34 35 33 24 18 9 6 6 6 6 4 2 1 2 2 3 3 5 5 5 5 6 7 6
 6 6 6 6 6 6 6 7 8 9 10 10 11 14 15 15 11 10 10 11 10 10 10 10 9 9 9 9 9 9 9 9 9
 10 12 13 13 13 13 13 15 19 22 23 23 23 23
 22 22 24 24 24 23 23 23 26 30 32 32 27 20 14 11 10 8 6 4 2 2 3 3 3 4 5 7 7 7 5
 6 6 6 6 6 6 6 6 6 7 8 9 9 10 12 15 16 16 13 12 12 12 11 11 11 11 11 11 10 10 10
 10 10 10 11 11 12 13 13 12 12 13 16 18 21 24 25 25 24
 23 23 22 22 22 22 22 22 22 23 24 26 25 23 19 17 13 10 5 4 2 2 3 3 4 4 5 8 7 7 5
 6 6 7 6 7 7 7 7 8 8 8 9 9 11 13 16 17 19 19 19 17 14 12 12 12 12 11 11 11 11 11
 11 11 11 12 12 12 13 13 13 14 16 19 21 24 25 26 26 25
 23 23 23 22 22 22 22 22 20 21 22 24 24 25 25 24 17 11 4 3 2 3 3 3 3 3 4 6 6 7 6
 7 7 7 7 7 7 7 8 9 10 9 9 10 12 17 23 24 26 27 27 23 17 14 13 12 12 12 12 12 12
 12 12 12 12 13 13 14 15 15 16 17 20 25 27 28 26 26 26 25
 23 22 23 23 23 22 21 20 19 20 20 22 24 28 29 30 20 12 4 3 3 2 2 2 2 3 3 4 5 6 7
 8 8 7 7 7 7 8 9 11 12 12 11 11 13 19 28 30 31 30 30 25 19 15 13 12 12 12 12 12
 13 13 13 13 13 14 14 16 18 18 20 21 25 31 33 31 26 24 25 25
 22 22 23 23 23 22 21 20 19 20 20 22 25 29 30 31 22 14 6 4 3 2 2 2 2 2 3 4 5 6 7
 8 8 8 7 7 7 7 9 11 13 13 13 13 14 21 30 32 32 29 28 24 19 16 14 13 12 12 12 13
 13 13 13 14 14 15 16 17 20 21 22 23 26 33 34 32 26 24 25 25
 23 22 23 23 23 21 20 20 20 20 21 22 24 28 28 28 21 15 9 6 4 3 2 2 2 2 3 4 5 6 7
 8 8 8 8 7 7 8 9 11 13 14 14 14 15 20 26 28 28 26 25 22 19 17 15 13 12 12 12 12
 13 13 13 14 14 15 16 17 20 22 23 24 27 32 32 30 26 25 25 25
 23 23 23 23 22 21 21 20 20 21 21 23 25 26 27 25 20 15 10 7 5 3 2 2 2 2 3 4 5 6
 7 7 8 8 8 8 8 8 10 11 12 13 14 15 17 20 24 26 27 26 25 22 20 17 15 14 13 12 12
 12 13 13 13 14 14 15 16 17 19 21 23 25 27 29 30 29 27 26 26 26
