P2
# image d epaisseurs optiques interpolee par interp.f, (100=aod 1)
# pixsiz    0.500
# lat0     35.000
# lon0    270.000
 80 40
 255
 254 254 254 254 254 254 254 254 254 254 254 254 254 254 254 254 254 254 254 254
 254 33 32 23 13 15 254 254 101 101 254 254 8 7 254 254 254 254 254 254 254 254
 254 254 254 254 254 254 254 254 254 254 254 254 254 254 254 254 254 254 254 254
 254 254 254 254 254 254 254 254 254 254 254 254 254 254 254 254 254 254
 254 254 254 254 254 254 254 254 254 254 254 254 254 254 254 254 254 254 254 254
 254 13 19 8 9 21 41 44 64 44 14 254 254 254 254 254 254 254 254 254 254 254 254
 254 254 254 254 254 254 254 254 254 254 254 254 254 254 254 254 254 254 254 254
 254 254 254 254 254 254 254 254 254 254 254 254 254 254 254 254 254
 254 254 254 254 254 254 254 254 254 254 254 254 254 254 254 254 254 254 254 254
 254 254 10 6 11 12 53 41 16 7 12 2 2 254 254 254 254 254 254 254 254 254 254
 254 254 254 254 254 254 254 254 254 254 254 254 254 254 254 254 254 8 8 254 254
 254 254 69 69 254 254 254 254 254 254 254 254 254 254 254 254
 254 254 254 254 254 254 254 254 254 254 254 254 254 254 254 254 254 254 254 254
 254 254 8 10 7 18 30 34 12 3 5 6 8 5 5 254 254 254 254 254 254 254 254 254 254
 254 254 254 254 254 254 254 254 254 254 254 254 254 254 254 12 10 254 254 254
 254 69 69 254 254 254 254 254 254 254 254 254 254 254 254
 254 254 254 254 254 254 254 254 254 254 254 254 254 254 254 254 254 254 254 254
 254 254 254 4 5 19 14 24 8 4 5 3 6 5 5 254 254 254 254 254 254 254 254 254 254
 254 254 254 254 254 254 254 254 254 254 254 254 254 254 254 16 254 254 254 254
 254 254 254 254 254 254 254 254 254 254 254 254 254 254 254
 254 254 254 254 254 254 254 254 254 254 254 17 254 254 254 254 6 5 5 6 5 4 254
 4 5 6 5 6 6 6 6 8 9 12 12 254 254 254 254 254 254 254 254 254 254 254 254 254
 254 254 254 254 254 254 254 254 254 254 254 254 8 8 254 254 254 254 254 254 254
 254 254 254 254 254 254 254 254 254 254 254
 254 254 254 16 16 254 254 254 254 254 254 10 7 254 16 12 6 6 4 4 3 4 10 5 4 4 7
 6 7 9 9 8 7 6 6 254 254 254 254 254 254 254 254 254 254 254 254 254 254 254 254
 254 254 254 254 254 254 254 254 25 15 9 254 24 19 3 254 254 254 254 254 254 254
 254 254 254 254 254 254 254
 254 254 254 16 16 254 254 254 254 254 14 13 8 3 5 7 4 3 3 5 1 2 6 3 9 11 17 12
 9 10 10 8 10 13 13 4 2 2 2 2 2 254 254 40 38 254 254 254 254 254 254 254 254
 254 254 254 254 254 254 254 13 13 254 1 1 2 254 254 254 254 254 254 254 254 254
 254 254 254 254 254
 254 254 254 254 254 254 254 254 254 254 254 254 254 8 9 11 8 1 2 3 2 3 9 19 8 8
 7 10 12 11 12 10 11 10 10 6 4 2 3 5 3 7 17 23 16 254 254 254 254 254 254 254
 254 254 254 254 254 254 254 254 254 254 1 1 2 2 254 254 254 254 254 254 254 254
 254 254 254 254 254 254
 254 254 254 254 254 254 254 254 254 254 254 254 254 254 254 254 254 3 4 5 9 6 3
 10 9 15 8 10 12 13 14 9 9 10 11 10 10 9 9 11 14 12 23 23 26 254 254 4 4 4 254
 254 254 254 254 254 254 1 1 1 1 1 2 1 2 254 254 254 254 254 254 254 254 254 254
 254 254 254 254 254
 254 254 254 254 254 254 254 254 254 254 254 254 254 254 254 254 254 2 8 11 11 7
 4 6 7 7 10 11 13 14 15 14 14 11 16 15 13 11 14 11 23 16 18 24 39 254 4 4 254
 254 254 254 254 254 254 4 4 3 1 1 1 1 1 2 254 254 254 254 254 254 254 254 254
 254 254 254 254 254 254 254
 254 254 254 254 254 254 254 254 254 254 254 254 254 254 254 254 254 254 13 7 3
 6 6 6 6 7 9 11 11 15 16 12 11 10 11 13 12 11 11 10 9 15 14 11 11 16 10 6 254 10
 19 21 254 254 2 2 5 5 2 1 1 1 1 2 254 254 254 254 254 254 254 254 254 254 254
 254 254 254 254 254
 254 254 254 254 254 254 254 254 254 254 254 254 254 254 254 254 254 254 254 254
 254 13 8 5 7 9 10 11 13 17 16 15 15 20 21 22 18 17 13 14 12 11 12 16 18 22 23
 20 254 254 254 254 254 254 3 5 4 2 1 1 1 1 2 254 254 254 254 254 254 254 254
 254 254 254 254 254 254 254 254 254
 254 254 254 254 254 254 254 254 254 254 254 254 254 254 254 254 254 254 254 254
 254 254 1 6 8 8 12 12 12 14 14 19 20 22 19 18 17 17 16 16 11 23 13 22 15 16 254
 254 254 254 254 254 254 254 3 3 1 1 1 1 1 1 7 8 1 254 254 254 254 254 254 254
 254 254 254 254 254 254 254 254
 254 254 254 254 254 254 254 254 254 254 254 254 254 254 254 254 254 254 254 254
 254 254 254 254 6 13 14 16 15 14 12 12 14 14 14 17 20 19 15 12 21 25 19 23 18
 19 254 254 254 18 16 254 254 254 4 2 1 1 1 1 1 1 3 7 2 254 254 254 254 254 254
 254 254 254 254 254 254 254 254 254
 254 254 11 11 254 254 254 254 254 254 254 254 254 254 254 254 254 254 254 254
 254 254 254 254 254 40 28 13 14 16 19 23 26 27 28 27 27 27 23 25 27 26 29 20 12
 5 254 254 254 25 25 254 254 254 254 1 1 1 2 1 1 1 1 1 254 254 254 254 254 254
 254 254 254 254 254 254 254 254 254 254
 254 254 11 11 254 254 254 254 7 12 13 7 254 254 254 254 254 254 254 254 254 254
 254 254 254 254 2 10 12 13 19 22 23 21 19 21 17 17 14 14 20 24 29 19 10 14 21
 254 254 18 21 14 25 254 21 10 2 2 12 6 254 254 2 2 254 3 254 254 254 254 254
 254 254 254 254 254 254 254 254 254
 254 254 254 254 254 254 1 1 6 12 13 7 254 254 254 254 254 254 254 254 254 254
 254 254 254 254 254 254 254 14 17 21 22 16 13 15 18 23 22 21 26 30 28 19 12 12
 15 13 16 17 27 23 254 2 16 6 3 1 9 6 2 2 254 254 254 3 254 254 254 254 254 254
 254 254 254 254 254 254 254 254
 254 254 254 254 254 254 254 254 254 254 254 254 254 254 254 254 254 254 254 254
 254 254 254 254 254 254 254 254 254 254 254 27 18 10 11 12 15 20 20 21 27 28 26
 25 17 18 15 254 10 15 16 21 254 254 254 254 12 16 2 2 1 2 2 4 5 254 254 254 254
 254 254 254 254 254 254 254 254 254 254 254
 254 254 254 254 254 254 254 254 254 7 11 14 254 254 20 52 82 254 254 254 254
 254 254 254 254 254 254 254 254 254 254 254 17 11 16 17 16 13 13 17 14 17 20 22
 14 16 254 4 4 6 6 10 18 254 254 254 11 14 1 1 1 1 3 5 6 254 254 254 254 254 254
 254 254 254 254 254 254 254 254 254
 254 254 254 254 254 254 254 254 254 254 254 21 20 17 18 17 18 7 4 254 17 26 254
 254 254 254 254 254 254 254 254 254 254 30 21 17 18 16 17 10 7 14 6 14 14 4 4 4
 5 18 16 254 2 2 2 3 4 1 1 1 1 2 254 254 254 254 254 254 254 254 254 254 254 254
 254 254 254 254 254 254
 16 15 14 5 10 254 254 6 6 254 254 254 254 17 17 19 19 4 2 254 26 35 16 21 254
 254 254 254 254 254 254 254 254 254 254 17 19 28 30 32 15 8 4 2 3 3 3 4 13 13
 254 3 2 2 1 1 1 1 1 2 3 2 2 2 254 254 254 254 254 254 254 254 254 254 254 254
 254 254 254 254
 12 13 11 9 14 33 36 4 4 13 254 254 254 41 44 28 26 7 8 254 254 31 23 20 254 254
 254 254 254 254 254 254 254 254 254 254 254 1 24 32 6 5 4 2 3 4 3 3 6 9 4 3 3 3
 2 2 2 1 2 2 2 254 254 254 254 254 254 254 254 254 254 254 254 254 254 254 254
 254 254 254
 15 12 10 13 14 28 254 12 10 23 254 254 28 39 44 254 254 4 254 254 254 8 12 29
 254 4 4 254 254 254 254 254 254 254 254 254 254 254 254 5 5 5 5 3 3 3 3 2 2 3 3
 3 3 3 2 2 2 2 2 2 2 3 254 254 254 254 254 254 254 254 254 254 254 254 254 254
 254 254 254 254
 8 8 11 18 8 254 254 22 11 254 254 254 32 40 254 27 18 254 254 254 254 254 20
 254 254 7 11 12 13 254 254 254 254 254 254 254 254 254 254 254 254 254 11 9 5 4
 3 2 2 3 4 3 3 3 3 3 3 2 2 254 254 254 254 254 254 254 254 254 254 254 254 254
 254 254 254 254 254 254 254 254
 3 5 6 12 15 23 35 26 29 35 254 254 38 38 254 28 17 17 254 254 254 254 254 254
 254 26 20 14 13 254 254 254 254 254 254 254 254 254 254 254 254 254 254 254 254
 7 8 6 3 4 5 4 3 3 3 3 3 4 254 254 254 254 254 254 254 254 254 254 254 254 254
 254 254 254 254 254 254 254 254 254
 254 2 5 5 11 9 11 254 254 254 37 40 44 42 254 254 254 254 254 254 254 254 254
 254 254 18 12 254 254 254 254 254 254 254 254 254 254 254 254 254 254 254 254
 254 20 20 13 10 5 5 8 9 5 4 3 2 3 4 254 254 254 254 254 254 254 254 254 254 254
 254 254 254 254 254 254 254 254 254 254 254
 254 254 254 3 11 12 18 254 254 254 254 254 30 32 22 30 254 14 10 4 5 5 13 254
 254 9 12 16 254 254 254 254 254 254 254 254 254 254 254 254 254 11 254 254 17
 20 15 12 13 8 9 12 13 15 16 15 15 254 254 254 254 254 254 254 254 254 254 254
 254 254 254 254 254 254 254 254 254 254 254 254
 254 254 254 254 15 22 254 254 254 254 52 48 37 45 23 37 12 9 7 14 13 14 15 9 6
 5 6 7 254 254 254 254 254 254 254 254 254 13 16 10 6 8 10 254 254 254 45 33 15
 11 6 6 5 5 254 254 254 254 254 254 254 254 254 254 254 254 254 254 254 254 254
 254 254 254 254 254 254 254 254 254
 254 254 254 254 254 254 254 254 254 44 43 42 21 19 8 12 6 6 6 8 7 6 7 7 5 5 5 5
 5 4 254 254 254 254 254 254 254 12 12 10 7 8 11 11 254 254 254 43 22 18 15 9 4
 3 254 254 254 254 254 254 254 254 254 254 254 254 254 254 254 254 254 254 254
 254 254 254 254 254 254 254
 254 254 254 254 254 254 254 254 254 44 41 27 10 5 3 2 3 3 3 2 2 2 2 2 3 4 4 3 7
 9 7 24 10 11 12 8 9 7 5 7 7 7 8 9 254 254 11 10 29 13 12 13 6 4 254 254 254 254
 254 254 254 254 254 254 254 254 254 254 254 254 254 254 254 254 254 254 254 254
 254 254
 254 254 254 254 254 254 254 254 24 39 42 19 8 5 5 3 2 3 3 3 2 1 1 2 2 3 4 4 5 7
 5 12 7 6 8 7 6 5 4 6 7 7 7 9 11 254 12 10 11 13 10 254 254 254 254 254 254 254
 254 254 254 254 254 254 254 254 254 254 254 254 254 254 254 254 254 254 254 254
 254 254
 254 254 254 254 254 254 254 254 254 48 48 39 29 14 7 6 4 6 6 5 1 1 2 2 3 3 4 7
 3 3 5 4 6 5 5 5 5 4 4 6 6 8 10 9 11 13 13 21 14 11 7 254 254 254 254 254 254
 254 254 254 254 254 254 254 254 254 254 254 254 254 254 254 254 254 254 254 254
 254 254 254
 254 254 254 254 254 254 254 254 254 254 254 254 42 23 12 10 9 11 11 2 1 1 2 3 3
 4 5 9 10 2 5 5 7 6 6 5 5 4 4 5 7 7 9 9 9 10 11 25 19 9 8 254 254 254 254 254
 254 254 254 254 254 254 254 254 254 254 254 254 254 254 254 254 254 254 254 254
 254 254 254 254
 254 254 254 254 254 254 254 254 254 254 254 254 254 18 14 21 17 7 5 1 2 3 4 5 4
 4 5 5 20 6 6 6 6 7 8 7 8 6 6 7 7 7 7 9 10 11 10 14 15 17 254 254 254 254 254
 254 254 254 254 254 254 254 254 254 254 254 254 254 254 254 11 11 254 254 254
 254 254 30 254 254
 254 254 254 254 254 254 254 254 254 254 254 254 254 254 29 22 19 4 5 2 3 3 3 4
 3 4 4 4 6 5 6 6 7 6 7 7 9 9 8 12 10 8 7 9 12 17 18 19 19 30 37 254 254 254 254
 254 254 254 254 254 254 254 254 254 254 254 254 254 254 13 13 254 254 254 254
 254 28 25 18 12
 254 254 254 254 254 254 254 254 254 254 254 254 254 254 32 32 31 4 3 2 2 1 2 2
 2 2 3 3 4 5 7 8 8 6 6 6 6 7 8 12 12 11 9 8 15 19 35 54 254 43 40 254 254 254
 254 254 254 254 254 254 254 254 254 254 254 254 254 18 18 254 18 20 23 254 46
 32 23 23 22 254
 254 254 254 254 254 254 254 254 254 254 254 254 254 254 254 40 254 5 5 254 4 2
 1 1 1 1 3 3 6 6 7 10 10 9 8 7 6 7 8 12 15 18 16 11 11 14 34 38 254 254 254 254
 254 254 254 254 254 254 254 254 254 254 254 254 254 254 254 18 18 254 20 20 254
 254 47 28 21 24 17 12
 254 254 254 254 254 254 254 254 254 254 254 254 254 254 254 254 254 254 254 254
 10 9 6 6 3 2 2 3 8 8 9 10 12 19 24 13 11 10 6 5 6 9 13 15 14 19 24 26 24 20 254
 254 254 254 254 254 254 254 254 254 254 254 254 254 254 254 254 254 254 17 254
 254 254 48 31 23 22 27 18 12
 254 254 254 254 254 254 254 254 254 254 254 254 254 254 254 254 254 254 254 30
 28 254 16 13 9 4 3 11 19 17 17 17 19 20 28 44 55 32 15 9 14 17 33 33 23 19 24
 33 37 36 254 254 254 254 254 254 254 254 254 254 254 254 254 254 254 254 254
 254 254 17 254 254 254 40 35 23 26 22 254 254
