P2
# From inspect3d.f
# Units of 1E+4 part/m^3 x   1339.451
 11 6
  255
 3 3 3 0 3 2 2 3 2 0 0 5 3 3 2 2 2 2 0 0 0 0 6 6 4 3 4 3 0 0 0 0 0 7 6 3 3 2 0 0
 0 0 0 0 6 5 4 2 0 0 0 0 0 0 0 5 4 4 0 0 0 0 0 0 0 0
