P2
# + buffer mask
#   pixsiz      0.500
#   lat0     33.000
#   lon0    267.000
 12 6
 255
 254 254 254 254 254 254 254 254 254 254 254 254
 254 254 254 254 254 254 254 254 254 254 254 254
 254 254 52 43 46 99 66 57 57 75 254 254
 254 254 36 61 68 77 94 71 74 62 254 254
 254 254 254 254 254 254 254 254 254 254 254 254
 254 254 254 254 254 254 254 254 254 254 254 254
