P2
# Mean vertical relative humidity level:  1- 6
 46 24
 255
 33 32 32 34 36 39 42 46 50 53 55 54 52 51 54 59 60 58 56 56 57 61 66 73 77 79
 80 80 80 81 84 88 89 87 82 79 79 79 80 79 79 80 81 83 87 91
 36 34 35 37 40 43 45 45 46 46 46 44 45 50 56 60 60 59 59 61 64 68 74 79 84 87
 88 88 87 88 88 88 87 85 83 79 77 76 77 78 81 85 86 85 86 90
 43 39 38 39 43 47 50 48 45 41 39 40 44 51 57 60 60 60 61 63 67 72 76 80 84 88
 91 92 92 92 92 90 88 88 88 89 87 85 83 84 84 82 77 74 78 86
 52 49 47 47 49 53 55 54 49 43 40 40 45 52 56 59 59 59 60 63 68 71 74 78 83 88
 91 94 96 96 96 95 94 94 95 96 96 92 87 83 77 69 62 62 71 82
 58 58 59 60 61 63 63 62 57 50 45 44 47 51 55 58 59 57 59 62 66 68 72 77 83 87
 90 92 93 95 96 96 96 96 95 95 95 92 87 80 72 63 56 55 61 72
 59 63 66 70 73 75 74 71 67 61 55 52 51 54 57 59 59 58 58 60 63 67 72 78 83 85
 88 91 94 95 96 95 93 92 91 91 93 93 90 84 77 70 64 58 55 59
 58 63 69 73 78 82 83 82 79 76 72 67 64 62 63 62 61 60 59 60 63 67 72 76 77 79
 84 90 95 96 95 94 88 83 82 85 89 92 92 90 87 84 81 74 65 59
 50 55 62 69 74 78 81 84 84 85 84 82 78 73 69 66 64 63 62 62 64 68 71 73 75 77
 81 87 95 96 96 92 86 81 80 83 86 88 89 91 90 89 90 89 84 74
 42 45 50 55 62 67 71 75 79 82 83 84 83 79 74 71 68 67 66 67 69 71 73 75 76 79
 84 91 97 98 96 93 88 84 82 83 83 84 85 86 87 89 91 93 92 87
 43 43 43 44 48 53 58 64 69 73 76 79 81 81 79 75 73 71 70 69 71 73 76 79 80 84
 90 96 98 98 97 96 94 91 87 84 82 82 82 83 86 89 93 94 93 90
 49 46 44 40 39 39 43 51 58 65 70 74 77 80 80 78 74 71 69 68 68 71 76 80 83 87
 93 96 97 96 94 92 91 90 88 86 84 84 83 86 89 92 94 95 93 90
 52 49 47 43 39 36 37 42 50 58 64 68 70 72 75 73 70 67 64 63 66 69 74 77 82 86
 90 91 91 87 83 80 78 79 81 83 83 84 85 86 88 89 91 93 89 83
 56 51 49 47 44 41 39 41 45 50 55 58 59 61 63 63 62 60 59 60 64 67 70 73 77 82
 85 83 80 76 72 71 72 73 75 78 79 81 81 81 82 83 85 85 79 69
 62 57 54 52 48 43 40 39 42 45 47 48 49 51 53 54 54 55 56 57 61 63 64 66 69 74
 76 74 71 68 67 68 71 73 74 75 76 77 77 77 78 79 77 71 63 55
 70 67 65 62 55 47 42 41 43 45 45 45 47 49 50 51 52 52 53 55 58 59 59 61 65 68
 69 67 66 66 68 70 71 71 71 71 72 74 75 75 73 69 63 55 50 51
 76 76 76 74 66 55 49 47 48 49 49 49 51 52 52 52 51 51 53 56 60 62 63 65 68 68
 67 67 69 70 71 70 68 67 66 67 69 71 70 66 59 55 52 51 55 64
 75 75 76 74 69 61 55 52 53 53 53 54 56 56 55 52 52 54 57 60 63 66 67 68 68 69
 71 74 74 73 70 68 65 63 62 62 64 62 57 52 51 54 58 66 74 83
 72 71 70 70 68 65 59 55 53 53 54 58 60 59 56 54 55 58 59 61 62 64 65 67 71 75
 78 77 75 72 68 64 61 59 57 56 54 51 48 50 57 66 74 81 85 87
 72 70 68 69 69 68 65 60 57 56 58 63 65 63 60 58 59 59 59 59 60 63 68 73 77 79
 79 77 73 70 65 61 58 55 53 51 48 47 49 57 68 76 81 82 82 83
 71 69 67 67 69 71 70 67 64 63 66 68 69 66 63 61 62 61 60 61 64 69 73 75 76 77
 77 75 72 68 63 59 57 55 53 51 50 52 58 67 75 79 79 79 79 81
 66 64 64 64 66 70 73 72 70 69 70 70 68 65 63 64 66 66 65 66 69 71 71 73 74 75
 75 74 71 67 63 59 57 56 56 56 57 61 67 73 77 77 76 77 80 81
 54 55 60 64 67 70 74 75 74 71 68 65 63 61 62 67 71 71 71 71 71 69 69 70 72 74
 74 74 72 69 65 62 60 59 60 62 65 68 72 75 74 74 75 79 81 80
 48 52 60 67 70 73 77 78 74 69 63 60 58 60 66 72 76 76 76 75 73 69 67 68 70 73
 75 76 75 73 71 68 65 64 65 67 69 72 74 73 72 74 77 80 80 77
 52 56 63 70 74 77 81 80 73 66 60 57 59 65 71 75 78 79 79 78 74 70 66 65 68 72
 76 78 79 78 76 73 71 69 69 70 72 74 74 72 73 75 78 79 77 74
