P2
# AOD map from AODSEM (100= aod 1)
# integration axis=3 from: 1 to:10
# pixsiz    0.500
# lat0     33.000
# lon0    267.000
    12      6
 255
 0 0 0 0 0 0 0 0 0 0 0 0
 0 0 0 0 0 0 0 0 0 0 0 0
 0 0 77 64 68 147 98 85 85 112 0 0
 0 0 55 93 103 117 141 108 112 93 0 0
 0 0 0 0 0 0 0 0 0 0 0 0
 0 0 0 0 0 0 0 0 0 0 0 0
