P2
# AOD map from AODSEM (100= aod 1)
# integration axis=3 from: 1 to:10
# pixsiz    0.500
# lat0     33.000
# lon0    267.000
    12      6
 255
 0 0 0 0 0 0 0 0 0 0 0 0
 0 0 0 0 0 0 0 0 0 0 0 0
 0 0 24 20 21 46 31 26 26 35 0 0
 0 0 16 27 30 34 42 31 33 27 0 0
 0 0 0 0 0 0 0 0 0 0 0 0
 0 0 0 0 0 0 0 0 0 0 0 0
