P2
# AOD map from AODSEM (100= aod 1)
# integration axis=3 from: 1 to:10
# pixsiz    0.500
# lat0     33.000
# lon0    267.000
    12      6
 255
 0 0 0 0 0 0 0 0 0 0 0 0
 0 0 0 0 0 0 0 0 0 0 0 0
 0 0 51 43 46 98 66 57 57 75 0 0
 0 0 36 61 67 77 93 71 74 61 0 0
 0 0 0 0 0 0 0 0 0 0 0 0
 0 0 0 0 0 0 0 0 0 0 0 0
