P2
#   Image from aodarit.f if applicable rms=     0.000
# pixsiz    0.500
# lat0   33.000
# lon0  267.000
 12 6
 255
 0 0 0 0 0 0 0 0 0 0 0 0
 0 0 0 0 0 0 0 0 0 0 0 0
 0 0 103 86 92 197 132 114 114 150 0 0
 0 0 72 122 135 154 187 142 148 123 0 0
 0 0 0 0 0 0 0 0 0 0 0 0
 0 0 0 0 0 0 0 0 0 0 0 0
