P2
# AOD map from AODSEM (100= aod 1)
# integration axis=3 from: 1 to:10
# pixsiz    0.500
# lat0     33.000
# lon0    267.000
    12      6
 255
 0 0 0 0 0 0 0 0 0 0 0 0
 0 0 0 0 0 0 0 0 0 0 0 0
 0 0 52 43 46 99 66 57 57 75 0 0
 0 0 36 61 68 77 94 71 74 62 0 0
 0 0 0 0 0 0 0 0 0 0 0 0
 0 0 0 0 0 0 0 0 0 0 0 0
